<?xml version="1.0"?>
<svg xmlns="http://www.w3.org/2000/svg" viewBox="0 0 512 512" width="512px" height="512px"><g><g id="Out_line" data-name="Out line"><path d="M396.4375,377.34375A7.99983,7.99983,0,0,0,392,376H336V312a8.00008,8.00008,0,0,0-8-8h-8V288H304v16h-8a8.00008,8.00008,0,0,0-8,8v6.55566l-32-5.333V312a8.00076,8.00076,0,0,0-2.34326-5.65723l-5.00556-5.00537,13.20111-44.8833,14.96351,4.86817-12.22986,40.35742,15.3125,4.64062,13.58984-44.8457,26.56836-16.08887a7.99728,7.99728,0,0,0,3.44531-4.3125l8-24a7.9997,7.9997,0,0,0-5.14111-10.14648l-14.054-4.51807,24.489-2.44873L335.2041,184.04l-18.82129,1.88208,4.678-15.43774,23.61841-2.0127-1.3584-15.94141-17.26514,1.47119,4.92725-16.25952a31.937,31.937,0,0,0,5.22412-46.635l29.44971-29.4497a8.00091,8.00091,0,0,0,1.49853-9.23535l-8-16a8,8,0,0,0-5.41992-4.23145l-72-16a8.00915,8.00915,0,0,0-5.313.6543l-16,8A7.99979,7.99979,0,0,0,256,32V72.1416L181.71,51.50586a20.56287,20.56287,0,0,0-26.0957,20.99463,22.94927,22.94927,0,0,0-5.19385,44.01123l26.11084,10.44433,7.12549,70.07325-7.79437,7.79443A40.04527,40.04527,0,0,0,136,168H56a40.04552,40.04552,0,0,0-40,40V456a40.04552,40.04552,0,0,0,40,40h80a40.04552,40.04552,0,0,0,40-40V400h8v16a8.00008,8.00008,0,0,0,8,8h2.33008A220.57622,220.57622,0,0,1,288,445.02588V456a8.00008,8.00008,0,0,0,8,8h80a8.00008,8.00008,0,0,0,8-8V438.94775l35.5625,23.7085A7.99983,7.99983,0,0,0,424,464h72V448H426.42236L380.486,417.376l-.03088-.02051-.01758-.01172-.00049.001A7.958,7.958,0,0,0,376,416H363.31348l-23.99964-24h50.2638l45.98486,30.65625A7.99983,7.99983,0,0,0,440,424h56V408H442.42236ZM320,320v16H304V320Zm-16,32h16v48H304Zm-16,8H264c-.12622,0-.249.01318-.37366.019l4.151-13.69873-15.3125-4.64062-9.515,31.40039q-9.407-1.9878-18.94983-3.19971V352h8a8.00035,8.00035,0,0,0,5.65674-2.34277l16-16a7.998,7.998,0,0,0,2.21-4.23535L288,334.77734Zm-96-64v40H176V298.522l54.55371-77.93408a7.9998,7.9998,0,0,0,1.376-5.64551L217.16156,104.18066l64.47833,17.91114a31.80407,31.80407,0,0,0,1.75513,4.22656L263.3208,128.0293l1.3584,15.9414,13.9281-1.187-4.60388,15.65357-18.68262,1.592,1.3584,15.9414,12.48022-1.06347-3.66259,12.45337-14.54859-4.677a8.00052,8.00052,0,0,0-10.0376,5.08594l-8,24a8.00082,8.00082,0,0,0,.43409,6.1084l14.59234,29.18457-12.29974,41.81836A7.99625,7.99625,0,0,0,232,288H200A8.00008,8.00008,0,0,0,192,296ZM328,112a16,16,0,1,1-16-16A16.01833,16.01833,0,0,1,328,112ZM208,336V304h20.68652L240,315.31348v9.373L228.68652,336ZM309.25293,233.22363l-23.44629,14.19825-23.64844-7.69434-13.021-26.042,4.44922-13.34766,60.17968,19.34668ZM299.1416,187.64624l-17.56836,1.75684,4.692-15.95362,17.63367-1.50268Zm9.7522-32.18237-17.78455,1.51562,4.604-15.65381,2.94494-.251A31.7989,31.7989,0,0,0,312,144c.12427,0,.24658-.00806.37061-.00928ZM272,36.94434l9.03711-4.51856L346.54736,46.9834l3.71875,7.43652-8.8955,8.89551L272,49.44141Zm0,28.81445,55.77344,11.1543-4.96875,4.9685a31.91855,31.91855,0,0,0-25.53345,1.72388L272,76.58594ZM171.79248,69.91992a4.62837,4.62837,0,0,1,5.63525-2.998l106.575,29.60351a31.77209,31.77209,0,0,0-3.27588,8.70728L174.944,75.84814a4.632,4.632,0,0,1-3.15149-5.92822ZM199.959,199.19043l-8-78.67285a8,8,0,0,0-4.98779-6.61817l-30.60791-12.24316a6.94063,6.94063,0,0,1,4.43457-13.13184l39.60156,11L215.6582,213.9668,176,270.62109V227.314l21.65674-21.65673A8.00138,8.00138,0,0,0,199.959,199.19043ZM104,184V480H88V184ZM32.582,461.23535l19.84033,9.91992,7.15528-14.31054L32,443.05566V428.94434l20.42236,10.21093,7.15528-14.31054L32,411.05566V396.94434l20.42236,10.21093,7.15528-14.31054L32,379.05566V364.94434l20.42236,10.21093,7.15528-14.31054L32,347.05566V332.94434l20.42236,10.21093,7.15528-14.31054L32,315.05566V300.94434l20.42236,10.21093,7.15528-14.31054L32,283.05566V268.94434l20.42236,10.21093,7.15528-14.31054L32,251.05591V236.94409l20.42236,10.21118,7.15528-14.31054L32,219.05591V208a24.09547,24.09547,0,0,1,.18927-2.96143l20.23309,10.1167,7.15528-14.31054L39.3559,190.73364A23.91162,23.91162,0,0,1,56,184H72V480H56A24.03691,24.03691,0,0,1,32.582,461.23535ZM136,480H120V184h16a23.91162,23.91162,0,0,1,16.6441,6.73364l-20.22174,10.11109,7.15528,14.31054,20.23309-10.1167A24.09547,24.09547,0,0,1,160,208v11.05591l-27.57764,13.78882,7.15528,14.31054L160,236.94409v14.11182l-27.57764,13.78882,7.15528,14.31054L160,268.94434v14.11132l-27.57764,13.78907,7.15528,14.31054L160,300.94434v14.11132l-27.57764,13.78907,7.15528,14.31054L160,332.94434v14.11132l-27.57764,13.78907,7.15528,14.31054L160,364.94434v14.11132l-27.57764,13.78907,7.15528,14.31054L160,396.94434v14.11132l-27.57764,13.78907,7.15528,14.31054L160,428.94434v14.11132l-27.57764,13.78907,7.15528,14.31054,19.84033-9.91992A24.03691,24.03691,0,0,1,136,480Zm56-112a8.00008,8.00008,0,0,0-8,8v8h-8V352h32v16.40332q-6.81711-.39477-13.66992-.40332Zm8,40.06934v-23.9961a218.83773,218.83773,0,0,1,61.54688,10.48047A8,8,0,0,0,272,386.93945V376h16v51.45312A236.93337,236.93337,0,0,0,200,408.06934ZM360,432h8v16H304V416h24a7.99559,7.99559,0,0,0,7.48608-5.19971l18.85718,18.85694A8.00035,8.00035,0,0,0,360,432Z" data-original="#000000" class="active-path" data-old_color="#000000" fill="#C70101"/></g></g> </svg>
