<?xml version="1.0"?>
<svg xmlns="http://www.w3.org/2000/svg" id="Capa_1" enable-background="new 0 0 503.228 503.228" height="512px" viewBox="0 0 503.228 503.228" width="512px" class=""><g><g><path d="m115.841 197.899c9.642 6.079 20.577 9.223 31.669 9.223 3.979 0 7.978-.405 11.943-1.223 16.669-3.44 31.088-13.865 39.56-28.604 8.468-14.731 10.206-32.472 4.768-48.671-9.338-27.816-38.169-44.748-67.063-39.386-5.925 1.1-11.602 3.059-16.872 5.823-3.668 1.924-5.082 6.458-3.158 10.126 1.924 3.667 6.456 5.083 10.125 3.159 3.94-2.067 8.194-3.533 12.642-4.359 21.593-4.004 43.133 8.637 50.106 29.411 4.134 12.312 2.872 25.247-3.552 36.422-6.334 11.02-17.118 18.815-29.586 21.388-23.037 4.751-46.39-9.967-52.058-32.816-2.661-10.725-1.253-21.984 3.965-31.704 1.96-3.649.59-8.196-3.06-10.155s-8.197-.588-10.156 3.06c-6.981 13.004-8.866 28.066-5.308 42.41 3.695 14.892 12.941 27.64 26.035 35.896z" data-original="#000000" class="active-path" data-old_color="#000000" fill="#FFFFFF"/><path d="m502.212 404.589c-1.232-2.677-3.434-4.713-6.197-5.734l-11.624-4.295c1.806-12.595 1.312-25.244-1.474-37.696l11.268-5.187c2.677-1.232 4.714-3.433 5.735-6.197 1.022-2.765.904-5.762-.328-8.436l-9.424-20.47c-2.543-5.525-9.104-7.953-14.634-5.407l-11.268 5.188c-7.649-10.213-16.939-18.815-27.681-25.631l4.295-11.624c2.108-5.706-.819-12.062-6.524-14.17l-21.138-7.811c-5.706-2.108-12.063.819-14.171 6.524l-2.833 7.666-116.044-129.713 4.617-1.107c3.448-.827 6.369-2.948 8.224-5.971 1.853-3.023 2.419-6.588 1.592-10.037l-5.479-22.844c-1.708-7.12-8.895-11.521-16.008-9.814l-13.807 3.311c-6.64-14.167-15.801-26.774-27.255-37.506l7.429-12.118c1.854-3.023 2.42-6.588 1.593-10.037-.827-3.448-2.948-6.369-5.972-8.222l-20.028-12.28c-6.24-3.826-14.433-1.86-18.258 4.38l-7.43 12.118c-14.762-5.341-30.153-7.792-45.789-7.277l-3.311-13.807c-.827-3.449-2.948-6.37-5.972-8.223-3.023-1.854-6.591-2.419-10.036-1.591l-22.844 5.479c-3.449.827-6.369 2.948-8.224 5.972-1.853 3.023-2.418 6.587-1.591 10.036l3.312 13.807c-14.169 6.64-26.776 15.801-37.508 27.255l-12.117-7.43c-3.022-1.854-6.586-2.418-10.037-1.593-3.448.827-6.369 2.948-8.223 5.972l-12.278 20.026c-1.854 3.023-2.42 6.588-1.593 10.036.827 3.449 2.947 6.37 5.972 8.224l12.117 7.43c-5.341 14.762-7.787 30.151-7.276 45.789l-13.808 3.312c-7.119 1.707-11.522 8.889-9.814 16.008l5.479 22.843c.827 3.449 2.947 6.369 5.971 8.223s6.591 2.42 10.036 1.592l13.808-3.312c6.64 14.168 15.802 26.776 27.255 37.506l-7.429 12.118c-1.854 3.023-2.42 6.588-1.593 10.036.827 3.449 2.947 6.37 5.972 8.224l20.027 12.279c3.757 2.304 8.216 2.495 12.01.931l178.781 124.14-5.021 2.312c-2.677 1.232-4.714 3.433-5.735 6.197-1.022 2.765-.904 5.762.328 8.436l9.424 20.471c2.544 5.522 9.108 7.948 14.634 5.406l11.267-5.188c7.651 10.213 16.941 18.815 27.682 25.631l-4.296 11.625c-2.107 5.705.819 12.061 6.524 14.17l21.14 7.811c1.256.464 2.543.684 3.811.684 4.488 0 8.716-2.76 10.359-7.208l4.295-11.623c12.596 1.806 25.244 1.311 37.695-1.474l5.188 11.267c1.232 2.677 3.434 4.714 6.197 5.736 2.765 1.022 5.762.905 8.438-.327l20.471-9.424c5.523-2.544 7.948-9.108 5.405-14.633l-5.186-11.268c10.213-7.65 18.815-16.94 25.631-27.681l11.623 4.295c2.764 1.021 5.76.905 8.437-.328 2.677-1.232 4.714-3.434 5.734-6.197l7.81-21.135c1.019-2.765.904-5.762-.328-8.44zm-190.854-120.468 5.188 11.268c-10.214 7.65-18.814 16.939-25.631 27.681l-11.623-4.295c-2.764-1.021-5.76-.905-8.436.328-2.677 1.232-4.714 3.434-5.734 6.197l-7.811 21.139c-2.107 5.704.819 12.061 6.524 14.17l11.624 4.295c-1.208 8.423-1.363 16.87-.515 25.267l-173.088-120.188 3.727-6.078c14.761 5.341 30.148 7.788 45.789 7.277l3.312 13.807c1.459 6.083 6.913 10.183 12.911 10.183 1.022 0 2.061-.119 3.097-.368l22.844-5.479c7.119-1.708 11.522-8.889 9.814-16.008l-3.312-13.807c14.168-6.64 26.774-15.801 37.507-27.255l12.118 7.43c6.239 3.827 14.433 1.862 18.259-4.38l12.278-20.027c3.827-6.241 1.863-14.432-4.379-18.26l-12.117-7.429c4.205-11.624 6.608-23.642 7.193-35.86l107.809 120.504c-7.248.084-14.481.902-21.649 2.505l-5.188-11.267c-2.543-5.525-9.104-7.953-14.634-5.407l-20.469 9.423c-5.525 2.543-7.952 9.107-5.408 14.634zm-225.093-17.407-17.09-10.478 7.271-11.859c3.313-5.404 2.314-12.446-2.376-16.745-10.78-9.879-19.306-21.611-25.341-34.872-2.634-5.789-9.021-8.917-15.185-7.438l-13.513 3.241-4.676-19.494 13.513-3.241c6.165-1.479 10.438-7.163 10.16-13.517-.638-14.552 1.638-28.875 6.766-42.572 2.229-5.959-.074-12.689-5.479-16.001l-11.858-7.271 10.477-17.09 11.86 7.271c5.404 3.312 12.446 2.312 16.744-2.377 9.879-10.78 21.612-19.306 34.871-25.34 5.789-2.634 8.918-9.02 7.438-15.185l-3.24-13.513 19.493-4.676 3.241 13.514c1.48 6.164 7.183 10.435 13.517 10.159 14.56-.637 28.876 1.639 42.572 6.767 5.959 2.229 12.689-.075 16.001-5.479l7.271-11.859 17.09 10.478-7.271 11.859c-3.313 5.404-2.314 12.446 2.376 16.745 10.781 9.88 19.307 21.613 25.34 34.871 2.634 5.788 9.015 8.918 15.185 7.438l13.514-3.241 4.676 19.494-13.512 3.241c-6.165 1.477-10.439 7.162-10.161 13.517.638 14.552-1.639 28.875-6.765 42.57-2.232 5.959.071 12.689 5.477 16.004l11.859 7.27-10.478 17.09-11.858-7.271c-5.407-3.314-12.448-2.315-16.746 2.376-9.88 10.781-21.612 19.307-34.87 25.34-5.789 2.634-8.918 9.02-7.438 15.185l3.24 13.514-19.493 4.676-3.241-13.514c-1.433-5.975-6.816-10.172-12.93-10.172-.195 0-.391.004-.587.013-14.556.632-28.876-1.64-42.571-6.766-5.956-2.229-12.688.073-16.002 5.478zm395.768 158.528-10.961-4.05c-5.002-1.847-10.593.13-13.295 4.7-6.548 11.074-15.23 20.452-25.804 27.87-4.351 3.05-5.89 8.779-3.66 13.622l4.892 10.626-13.26 6.105-4.893-10.626c-2.228-4.841-7.583-7.394-12.728-6.078-12.513 3.21-25.283 3.71-37.952 1.483-5.237-.92-10.371 2.043-12.218 7.045l-4.05 10.96-13.692-5.06 4.05-10.96c1.848-5-.128-10.591-4.699-13.296-11.075-6.548-20.452-15.23-27.871-25.804-3.05-4.351-8.778-5.891-13.622-3.66l-10.625 4.892-6.104-13.26 10.624-4.891c4.841-2.227 7.397-7.578 6.079-12.728-3.211-12.514-3.71-25.283-1.483-37.953.92-5.231-2.043-10.369-7.046-12.218l-10.959-4.049 5.06-13.693 10.961 4.05c5 1.848 10.59-.13 13.295-4.7 6.549-11.076 15.23-20.453 25.807-27.872 4.348-3.052 5.886-8.78 3.657-13.62l-4.892-10.625 13.26-6.105 4.893 10.626c2.229 4.842 7.582 7.397 12.726 6.077 12.514-3.21 25.281-3.71 37.956-1.482 5.232.918 10.365-2.045 12.216-7.046l4.049-10.96 13.693 5.06-4.05 10.96c-1.848 5 .128 10.591 4.699 13.296 11.076 6.549 20.453 15.231 27.872 25.807 3.052 4.348 8.778 5.886 13.62 3.657l10.625-4.892 6.104 13.26-10.624 4.891c-4.843 2.229-7.398 7.582-6.078 12.728 3.21 12.511 3.709 25.281 1.483 37.955-.919 5.23 2.044 10.367 7.045 12.215l10.96 4.049z" data-original="#000000" class="active-path" data-old_color="#000000" fill="#FFFFFF"/><path d="m397.724 331.559c-26.559-9.815-56.156 3.81-65.973 30.372-9.814 26.562 3.811 56.157 30.372 65.972 5.797 2.142 11.826 3.201 17.829 3.201 9.044 0 18.028-2.406 26.059-7.136 3.569-2.102 4.758-6.7 2.655-10.268-2.103-3.569-6.7-4.757-10.269-2.655-9.462 5.573-20.789 6.59-31.075 2.789-18.804-6.948-28.449-27.899-21.501-46.702 6.948-18.804 27.9-28.451 46.703-21.501 9.108 3.366 16.361 10.077 20.423 18.898 4.061 8.821 4.443 18.695 1.077 27.804-1.436 3.885.55 8.199 4.436 9.635s8.198-.55 9.635-4.436c4.755-12.867 4.214-26.815-1.522-39.276s-15.982-21.942-28.849-26.697z" data-original="#000000" class="active-path" data-old_color="#000000" fill="#FFFFFF"/></g></g> </svg>
