<?xml version="1.0"?>
<svg xmlns="http://www.w3.org/2000/svg" id="Capa_1" enable-background="new 0 0 512 512" height="512px" viewBox="0 0 512 512" width="512px"><g><path d="m386.94 365.477c-5.857-5.858-15.355-5.858-21.213 0s-5.858 15.355 0 21.213l59 59c5.857 5.858 15.355 5.859 21.213 0 5.858-5.858 5.858-15.355 0-21.213z" data-original="#000000" class="active-path" data-old_color="#000000" fill="#C70101"/><path d="m386.83 280.575c-5.858-5.852-15.351-5.848-21.207.006l-31.79 31.79-34.326-34.326 82.904-82.904c73.677 21.394 129.589-15.808 129.589-95.334 0-13.563-2.245-26.876-6.672-39.572-3.638-10.432-16.959-13.479-24.77-5.667l-43.011 43.01h-15.817l-6.931-6.931c.136-5.18.416-9.494.55-15.116l43.567-43.567c7.752-7.752 4.819-20.943-5.462-24.697-13.207-4.822-27.09-7.267-41.261-7.267-80.499 0-117.447 57.392-94.915 131.176l-82.343 82.343c-.798-.871-113.266-113.313-114.101-114.148v-36.788c0-3.978-1.581-7.793-4.394-10.606l-46.667-46.667c-5.857-5.858-15.355-5.858-21.213 0l-43.5 43.5c-5.858 5.858-5.858 15.355 0 21.213l45.667 45.667c2.813 2.813 6.628 4.394 10.606 4.394h37.787c.831.831 113.781 113.808 114.648 114.601l-82.593 82.593c-73.863-22.557-131.175 14.487-131.175 94.915 0 14.171 2.445 28.054 7.267 41.261 3.753 10.279 16.945 13.216 24.697 5.462l43.492-43.492h15.816l6.306 6.306v15.817l-43.01 43.011c-7.812 7.811-4.764 21.132 5.667 24.77 12.696 4.427 26.01 6.672 39.572 6.672 79.363 0 116.775-55.741 95.333-129.588l83.154-83.154 34.326 34.326-31.849 31.849c-5.858 5.858-5.858 15.355 0 21.213l102.457 102.459c29.313 29.314 76.849 29.327 106.171-.046 29.218-29.268 29.189-76.863-.066-106.1zm-295.997-190.492h-23.286l-30.667-30.666 22.287-22.287 31.667 31.667v21.286zm76.633 277.577c-4.07 4.07-5.453 10.111-3.557 15.546 10.547 30.241 9.522 56.515-2.884 73.981-14.118 19.875-41.315 25.807-65.379 24.72l27.539-27.54c2.813-2.813 4.394-6.628 4.394-10.606v-28.243c0-3.978-1.58-7.793-4.393-10.606l-15.092-15.093c-2.813-2.813-6.628-4.394-10.607-4.394h-28.245c-3.979 0-7.793 1.581-10.606 4.394l-28.437 28.436c-.133-2.011-.199-4.032-.199-6.062 0-63.085 41.789-84.933 100.074-63.653 5.48 2.001 11.625.643 15.75-3.484l199.231-199.231c4.126-4.125 5.485-10.27 3.484-15.75-21.31-58.372.666-100.075 63.654-100.075 2.03 0 4.051.066 6.062.199l-28.436 28.437c-2.813 2.813-4.394 6.628-4.394 10.606 0 10.591-.706 16.107-.706 27.537 0 3.979 1.581 7.794 4.394 10.607l15.799 15.798c2.813 2.813 6.628 4.393 10.606 4.393h28.243c3.978 0 7.793-1.581 10.606-4.394l27.54-27.539c.063 1.383.094 2.77.094 4.162 0 62.101-40.365 84.479-98.794 64.102-5.435-1.895-11.476-.513-15.546 3.557zm300.702 100.203c-17.58 17.61-46.111 17.643-63.727.028l-91.851-91.853 63.645-63.644 91.895 91.786c17.558 17.548 17.576 46.115.038 63.683z" data-original="#000000" class="active-path" data-old_color="#000000" fill="#C70101"/></g> </svg>
